<mxfile host="app.diagrams.net" modified="2020-07-21T20:13:09.578Z" agent="5.0 (Windows NT 10.0; Win64; x64) AppleWebKit/537.36 (KHTML, like Gecko) Chrome/84.0.4147.89 Safari/537.36" etag="V8awa42G0yKIdrGp9NYZ" version="13.4.9" type="github">
  <diagram id="C5RBs43oDa-KdzZeNtuy" name="Page-1">
    <mxGraphModel dx="2249" dy="1931" grid="1" gridSize="10" guides="1" tooltips="1" connect="1" arrows="1" fold="1" page="1" pageScale="1" pageWidth="827" pageHeight="1169" math="0" shadow="0">
      <root>
        <mxCell id="WIyWlLk6GJQsqaUBKTNV-0" />
        <mxCell id="WIyWlLk6GJQsqaUBKTNV-1" parent="WIyWlLk6GJQsqaUBKTNV-0" />
        <mxCell id="LRgtKBB10IDBJqXaKjea-1" value="&lt;font style=&quot;font-size: 24px&quot;&gt;Target Audience:&lt;br&gt;1. Families, working moms and dads&lt;br&gt;2. All ages (kids, teens, young adults)&lt;br&gt;3. College Students&lt;/font&gt;" style="text;html=1;strokeColor=none;fillColor=none;align=center;verticalAlign=middle;whiteSpace=wrap;rounded=0;" vertex="1" parent="WIyWlLk6GJQsqaUBKTNV-1">
          <mxGeometry x="-260" y="-10" width="335" height="180" as="geometry" />
        </mxCell>
        <mxCell id="LRgtKBB10IDBJqXaKjea-2" value="&lt;font&gt;&lt;font style=&quot;font-size: 24px&quot;&gt;3 Tasks:&lt;br&gt;1. Working or Studying 40+ hours per week&lt;br&gt;2. Take 30-60 min lunch breaks&lt;br&gt;3. On the go!&lt;/font&gt;&lt;br&gt;&lt;/font&gt;" style="text;html=1;strokeColor=none;fillColor=none;align=center;verticalAlign=middle;whiteSpace=wrap;rounded=0;" vertex="1" parent="WIyWlLk6GJQsqaUBKTNV-1">
          <mxGeometry x="110" y="25" width="240" height="140" as="geometry" />
        </mxCell>
        <mxCell id="LRgtKBB10IDBJqXaKjea-3" value="&lt;font style=&quot;font-size: 18px&quot;&gt;&lt;font&gt;Pains or Gains completing tasks:&lt;br&gt;1. Working/ Studying long hours making it difficult to have energy to cook every night (pain)&lt;br&gt;&lt;br&gt;2. Students and Parents need meals that are filling, inexpensive, and versatile (gain)&lt;br&gt;&lt;br&gt;&lt;/font&gt;3. Saves more time in the kitchen to study, spend more time with family, and rest (gain)&lt;/font&gt;" style="text;html=1;strokeColor=none;fillColor=none;align=center;verticalAlign=middle;whiteSpace=wrap;rounded=0;" vertex="1" parent="WIyWlLk6GJQsqaUBKTNV-1">
          <mxGeometry x="-260" y="200" width="412.5" height="270" as="geometry" />
        </mxCell>
        <mxCell id="LRgtKBB10IDBJqXaKjea-6" value="" style="edgeStyle=orthogonalEdgeStyle;rounded=0;orthogonalLoop=1;jettySize=auto;html=1;" edge="1" parent="WIyWlLk6GJQsqaUBKTNV-1" source="LRgtKBB10IDBJqXaKjea-4" target="LRgtKBB10IDBJqXaKjea-5">
          <mxGeometry relative="1" as="geometry" />
        </mxCell>
        <mxCell id="LRgtKBB10IDBJqXaKjea-4" value="Text" style="text;html=1;strokeColor=none;fillColor=none;align=center;verticalAlign=middle;whiteSpace=wrap;rounded=0;" vertex="1" parent="WIyWlLk6GJQsqaUBKTNV-1">
          <mxGeometry x="470" y="40" width="40" height="20" as="geometry" />
        </mxCell>
        <mxCell id="LRgtKBB10IDBJqXaKjea-5" value="&lt;font face=&quot;Times New Roman&quot; style=&quot;font-size: 36px&quot;&gt;Pizza Restaurant Idea for Website!&lt;/font&gt;" style="shape=cube;whiteSpace=wrap;html=1;boundedLbl=1;backgroundOutline=1;darkOpacity=0.05;darkOpacity2=0.1;rounded=0;strokeColor=none;fillColor=none;" vertex="1" parent="WIyWlLk6GJQsqaUBKTNV-1">
          <mxGeometry x="210" y="-160" width="330" height="130" as="geometry" />
        </mxCell>
        <mxCell id="LRgtKBB10IDBJqXaKjea-7" value="&lt;font face=&quot;Times New Roman&quot; style=&quot;font-size: 18px&quot;&gt;User stories:&lt;br&gt;1. As a busy parent, I want to &lt;u&gt;order food for my household&lt;/u&gt;&amp;nbsp;so that I can &lt;u&gt;have one less thing to worry about when I come home to greet my family&lt;/u&gt;&lt;br&gt;2. As a full-time student, I want to &lt;u&gt;order food that is inexpensive&lt;/u&gt;&amp;nbsp;so that I can &lt;u&gt;have a delicious meal versus a granola bar.&lt;/u&gt;&lt;br&gt;3. As a young adult working 60-80s a week, I want to &lt;u&gt;have the ease of ordering food online during lunch hours&amp;nbsp;&lt;/u&gt;&amp;nbsp;so that I can &lt;u&gt;enjoy a nice hot meal and not worry about what I am going to eat, and save time on trying to pack lunch overnight.&lt;/u&gt;&lt;br&gt;&lt;/font&gt;" style="text;html=1;strokeColor=none;fillColor=none;align=center;verticalAlign=middle;whiteSpace=wrap;rounded=0;" vertex="1" parent="WIyWlLk6GJQsqaUBKTNV-1">
          <mxGeometry x="-220" y="450" width="360" height="390" as="geometry" />
        </mxCell>
        <mxCell id="LRgtKBB10IDBJqXaKjea-12" value="" style="edgeStyle=orthogonalEdgeStyle;rounded=0;orthogonalLoop=1;jettySize=auto;html=1;" edge="1" parent="WIyWlLk6GJQsqaUBKTNV-1" source="LRgtKBB10IDBJqXaKjea-10" target="LRgtKBB10IDBJqXaKjea-11">
          <mxGeometry relative="1" as="geometry" />
        </mxCell>
        <mxCell id="LRgtKBB10IDBJqXaKjea-20" value="" style="edgeStyle=orthogonalEdgeStyle;rounded=0;orthogonalLoop=1;jettySize=auto;html=1;" edge="1" parent="WIyWlLk6GJQsqaUBKTNV-1" source="LRgtKBB10IDBJqXaKjea-10" target="LRgtKBB10IDBJqXaKjea-19">
          <mxGeometry relative="1" as="geometry" />
        </mxCell>
        <mxCell id="LRgtKBB10IDBJqXaKjea-10" value="Home Page" style="ellipse;whiteSpace=wrap;html=1;" vertex="1" parent="WIyWlLk6GJQsqaUBKTNV-1">
          <mxGeometry x="730" y="230" width="210" height="130" as="geometry" />
        </mxCell>
        <mxCell id="LRgtKBB10IDBJqXaKjea-14" value="" style="edgeStyle=orthogonalEdgeStyle;rounded=0;orthogonalLoop=1;jettySize=auto;html=1;" edge="1" parent="WIyWlLk6GJQsqaUBKTNV-1" source="LRgtKBB10IDBJqXaKjea-11" target="LRgtKBB10IDBJqXaKjea-13">
          <mxGeometry relative="1" as="geometry">
            <Array as="points">
              <mxPoint x="975" y="85" />
            </Array>
          </mxGeometry>
        </mxCell>
        <mxCell id="LRgtKBB10IDBJqXaKjea-16" value="" style="edgeStyle=orthogonalEdgeStyle;rounded=0;orthogonalLoop=1;jettySize=auto;html=1;" edge="1" parent="WIyWlLk6GJQsqaUBKTNV-1" source="LRgtKBB10IDBJqXaKjea-11" target="LRgtKBB10IDBJqXaKjea-15">
          <mxGeometry relative="1" as="geometry" />
        </mxCell>
        <mxCell id="LRgtKBB10IDBJqXaKjea-18" value="" style="edgeStyle=orthogonalEdgeStyle;rounded=0;orthogonalLoop=1;jettySize=auto;html=1;" edge="1" parent="WIyWlLk6GJQsqaUBKTNV-1" source="LRgtKBB10IDBJqXaKjea-11" target="LRgtKBB10IDBJqXaKjea-17">
          <mxGeometry relative="1" as="geometry" />
        </mxCell>
        <mxCell id="LRgtKBB10IDBJqXaKjea-22" style="edgeStyle=orthogonalEdgeStyle;rounded=0;orthogonalLoop=1;jettySize=auto;html=1;" edge="1" parent="WIyWlLk6GJQsqaUBKTNV-1" source="LRgtKBB10IDBJqXaKjea-11" target="LRgtKBB10IDBJqXaKjea-23">
          <mxGeometry relative="1" as="geometry">
            <mxPoint x="1080" y="320" as="targetPoint" />
            <Array as="points">
              <mxPoint x="835" y="190" />
              <mxPoint x="1080" y="190" />
            </Array>
          </mxGeometry>
        </mxCell>
        <mxCell id="LRgtKBB10IDBJqXaKjea-24" style="edgeStyle=orthogonalEdgeStyle;rounded=0;orthogonalLoop=1;jettySize=auto;html=1;" edge="1" parent="WIyWlLk6GJQsqaUBKTNV-1" source="LRgtKBB10IDBJqXaKjea-11" target="LRgtKBB10IDBJqXaKjea-25">
          <mxGeometry relative="1" as="geometry">
            <mxPoint x="620" y="280" as="targetPoint" />
            <Array as="points">
              <mxPoint x="835" y="200" />
              <mxPoint x="620" y="200" />
            </Array>
          </mxGeometry>
        </mxCell>
        <mxCell id="LRgtKBB10IDBJqXaKjea-11" value="Navigation Bar" style="whiteSpace=wrap;html=1;" vertex="1" parent="WIyWlLk6GJQsqaUBKTNV-1">
          <mxGeometry x="775" y="55" width="120" height="60" as="geometry" />
        </mxCell>
        <mxCell id="LRgtKBB10IDBJqXaKjea-13" value="Menu" style="ellipse;shape=cloud;whiteSpace=wrap;html=1;" vertex="1" parent="WIyWlLk6GJQsqaUBKTNV-1">
          <mxGeometry x="975" y="45" width="120" height="80" as="geometry" />
        </mxCell>
        <mxCell id="LRgtKBB10IDBJqXaKjea-15" value="Specials" style="ellipse;shape=cloud;whiteSpace=wrap;html=1;" vertex="1" parent="WIyWlLk6GJQsqaUBKTNV-1">
          <mxGeometry x="575" y="45" width="120" height="80" as="geometry" />
        </mxCell>
        <mxCell id="LRgtKBB10IDBJqXaKjea-17" value="Social Media Influence" style="ellipse;shape=cloud;whiteSpace=wrap;html=1;" vertex="1" parent="WIyWlLk6GJQsqaUBKTNV-1">
          <mxGeometry x="775" y="-95" width="120" height="80" as="geometry" />
        </mxCell>
        <mxCell id="LRgtKBB10IDBJqXaKjea-19" value="Highlight Special of the day, and contact information" style="ellipse;shape=cloud;whiteSpace=wrap;html=1;" vertex="1" parent="WIyWlLk6GJQsqaUBKTNV-1">
          <mxGeometry x="775" y="465" width="385" height="265" as="geometry" />
        </mxCell>
        <mxCell id="LRgtKBB10IDBJqXaKjea-23" value="Gallery" style="ellipse;shape=cloud;whiteSpace=wrap;html=1;" vertex="1" parent="WIyWlLk6GJQsqaUBKTNV-1">
          <mxGeometry x="1020" y="280" width="120" height="80" as="geometry" />
        </mxCell>
        <mxCell id="LRgtKBB10IDBJqXaKjea-25" value="Order Online" style="ellipse;shape=cloud;whiteSpace=wrap;html=1;" vertex="1" parent="WIyWlLk6GJQsqaUBKTNV-1">
          <mxGeometry x="560" y="240" width="120" height="80" as="geometry" />
        </mxCell>
      </root>
    </mxGraphModel>
  </diagram>
</mxfile>
